/* XPM */
static char * whiterenamer_xpm[] = {
"32 32 67 1",
" 	c None",
".	c #6C6C6C",
"+	c #6F6F6F",
"@	c #6E6E6E",
"#	c #6F6F68",
"$	c #6E6E68",
"%	c #6E6E67",
"&	c #6F6F67",
"*	c #6D6D68",
"=	c #6E6E6A",
"-	c #6D6D67",
";	c #6D6D6A",
">	c #6E6E69",
",	c #71716B",
"'	c #6F6F66",
")	c #707070",
"!	c #6D6D6D",
"~	c #898989",
"{	c #D8D8D8",
"]	c #ECECEC",
"^	c #EDEDED",
"/	c #D7D7D7",
"(	c #9C9C9C",
"_	c #CBCBCB",
":	c #FBFBFB",
"<	c #9F9F9F",
"[	c #A4A4A4",
"}	c #C9C9C9",
"|	c #FEFEFE",
"1	c #B0B0B0",
"2	c #818181",
"3	c #929292",
"4	c #D2D2D2",
"5	c #F6F6F6",
"6	c #808080",
"7	c #9B9B9B",
"8	c #B6B6B6",
"9	c #E1E1E1",
"0	c #FFFFFF",
"a	c #787878",
"b	c #F0F0F0",
"c	c #FDFDFD",
"d	c #E7E7E7",
"e	c #CCCCCC",
"f	c #CFCFCF",
"g	c #747474",
"h	c #F9F9F9",
"i	c #DFDFDF",
"j	c #757575",
"k	c #7D7D7D",
"l	c #A0A0A0",
"m	c #ADADAD",
"n	c #CACACA",
"o	c #F1F1F1",
"p	c #BCBCBC",
"q	c #AAAAAA",
"r	c #C5C5C5",
"s	c #C4C4C4",
"t	c #A1A1A1",
"u	c #A2A2A2",
"v	c #D4D4D4",
"w	c #E3E3E3",
"x	c #CDCDCD",
"y	c #9A9A9A",
"z	c #B5B5B5",
"A	c #D5D5D5",
"B	c #C8C8C8",
"           .+@@@#$$$%           ",
"         @@@@@@@%$&*$$*=        ",
"       @@@@@@@@@    $$$$$       ",
"      @@@@@@@@@@       *$$-     ",
"    .@@@@@@@@@@@        -*$;    ",
"    @@@@@@@@@@@@          $>,   ",
"   @@@@@@@@@@@@@           $$   ",
"  @@@@@@@@@@@@@@           '$%  ",
"  @@@@@@@@@@@@@@ )!@!       $$  ",
" @@@@@@@@@@@@@@@  +@@        $$ ",
" @@@@@@@@@@@@@@@   @@        $$ ",
".@@@@~{]^/(@@@@@   @@ @@@    %$#",
"+@@@@_:<[}|1@@@@   @@@@@@@+   $#",
"@@@@@23@@@45+@@@   @@@+  !@@  *$",
"@@@@@@@67890a@@@   @@+    @@  $$",
"@@@@@3bcdef0a@@@   @@     @@  >>",
"@@@@ghij@@<0a@@@   @@     @@  >>",
"@@@@kcl@@@m0a@@@   @@+    !@  $$",
"@@@@@nopqr:0st@@   @@@  @!@!  *$",
"+@@@@juvwxyzAB@@   +@@@@@@.   $#",
".@@@@@@@@@@@@@@@       @)    %$#",
" @@@@@@@@@@@@@@@             $$ ",
" @@@@@@@@@@@@@@@             $$ ",
"  @@@@@@@@@@@@@@            $$  ",
"  @@@@@@@@@@@@@@           '$%  ",
"   @@@@@@@@@@@@@           $$   ",
"    @@@@@@@@@@@@          $>,   ",
"    .@@@@@@@@@@@        -*$;    ",
"      @@@@@@@@@@       *$$-     ",
"       @@@@@@@@@    $$$$$       ",
"         @@@@@@@%$&*$$*=        ",
"           .+@@@#$$$%           "};
