<?xml version="1.0" encoding="UTF-8" standalone="no"?>
<!-- Created with Inkscape (http://www.inkscape.org/) -->

<svg
   xmlns:dc="http://purl.org/dc/elements/1.1/"
   xmlns:cc="http://creativecommons.org/ns#"
   xmlns:rdf="http://www.w3.org/1999/02/22-rdf-syntax-ns#"
   xmlns:svg="http://www.w3.org/2000/svg"
   xmlns="http://www.w3.org/2000/svg"
   xmlns:xlink="http://www.w3.org/1999/xlink"
   xmlns:sodipodi="http://sodipodi.sourceforge.net/DTD/sodipodi-0.dtd"
   xmlns:inkscape="http://www.inkscape.org/namespaces/inkscape"
   id="svg7384"
   version="1.1"
   inkscape:version="0.48.5 r10040"
   height="16"
   sodipodi:docname="help_icon.svg"
   width="16.000002"
   inkscape:export-filename="/home/pierre/Documents/Programs/White-Renamer/Icons/16x16/export_icon.png"
   inkscape:export-xdpi="90"
   inkscape:export-ydpi="90">
  <metadata
     id="metadata90">
    <rdf:RDF>
      <cc:Work
         rdf:about="">
        <dc:format>image/svg+xml</dc:format>
        <dc:type
           rdf:resource="http://purl.org/dc/dcmitype/StillImage" />
        <dc:title>Gnome Symbolic Icon Theme</dc:title>
      </cc:Work>
    </rdf:RDF>
  </metadata>
  <sodipodi:namedview
     inkscape:cy="7.3605069"
     inkscape:current-layer="layer13"
     inkscape:window-width="719"
     pagecolor="#555753"
     showborder="true"
     showguides="true"
     inkscape:snap-nodes="true"
     objecttolerance="10"
     showgrid="true"
     inkscape:object-nodes="true"
     inkscape:pageshadow="2"
     inkscape:guide-bbox="true"
     inkscape:window-x="720"
     inkscape:snap-bbox="true"
     bordercolor="#666666"
     id="namedview88"
     inkscape:window-maximized="0"
     inkscape:snap-global="true"
     inkscape:window-y="27"
     gridtolerance="10"
     inkscape:zoom="25.891022"
     inkscape:window-height="834"
     borderopacity="1"
     guidetolerance="10"
     inkscape:cx="8.3473879"
     inkscape:bbox-paths="false"
     inkscape:snap-grids="true"
     inkscape:pageopacity="0"
     inkscape:snap-to-guides="true">
    <inkscape:grid
       visible="true"
       spacingx="1px"
       type="xygrid"
       spacingy="1px"
       id="grid4866"
       empspacing="2"
       enabled="true"
       snapvisiblegridlinesonly="true" />
  </sodipodi:namedview>
  <title
     id="title9167">Gnome Symbolic Icon Theme</title>
  <defs
     id="defs7386">
    <radialGradient
       inkscape:collect="always"
       xlink:href="#StandardGradient"
       id="radialGradient3831"
       cx="9"
       cy="10.333333"
       fx="9"
       fy="10.333333"
       r="7"
       gradientTransform="matrix(1.5714286,0,0,0.99999996,-5.1428571,-0.33333287)"
       gradientUnits="userSpaceOnUse" />
    <linearGradient
       id="StandardGradient"
       gradientTransform="scale(0.9219544,1.0846523)"
       x1="11.998966"
       y1="0.92195445"
       x2="11.998966"
       y2="19.387045"
       gradientUnits="userSpaceOnUse">
      <stop
         style="stop-color:#000000;stop-opacity:0.23529412;"
         offset="0"
         id="stop3283" />
      <stop
         id="stop3846"
         offset="0.69999999"
         style="stop-color:#000000;stop-opacity:0.39215686;" />
      <stop
         style="stop-color:#000000;stop-opacity:0.54901963;"
         offset="1"
         id="stop2651" />
    </linearGradient>
    <linearGradient
       inkscape:collect="always"
       xlink:href="#linearGradient4176"
       id="linearGradient4182"
       x1="8"
       y1="0"
       x2="8"
       y2="16"
       gradientUnits="userSpaceOnUse" />
    <linearGradient
       inkscape:collect="always"
       id="linearGradient4176">
      <stop
         style="stop-color:#6e6e6e;stop-opacity:1;"
         offset="0"
         id="stop4178" />
      <stop
         style="stop-color:#6e6e6e;stop-opacity:0;"
         offset="1"
         id="stop4180" />
    </linearGradient>
    <linearGradient
       gradientTransform="translate(482,176)"
       y2="16"
       x2="8"
       y1="0"
       x1="8"
       gradientUnits="userSpaceOnUse"
       id="linearGradient3018"
       xlink:href="#linearGradient4176"
       inkscape:collect="always" />
  </defs>
  <g
     transform="translate(-482,-176)"
     inkscape:groupmode="layer"
     id="layer9"
     inkscape:label="status"
     style="display:inline" />
  <g
     transform="translate(-482,-176)"
     inkscape:groupmode="layer"
     id="layer10"
     inkscape:label="devices" />
  <g
     transform="translate(-482,-176)"
     inkscape:groupmode="layer"
     id="layer11"
     inkscape:label="apps" />
  <g
     transform="translate(-482,-176)"
     inkscape:groupmode="layer"
     id="layer12"
     inkscape:label="actions" />
  <g
     transform="translate(-482,-176)"
     inkscape:groupmode="layer"
     id="layer13"
     inkscape:label="places">
    <g
       transform="translate(254.0002,-820)"
       id="g40072"
       inkscape:label="folder-remote" />
    <path
       style="color:#000000;fill:url(#linearGradient3018);fill-opacity:1;fill-rule:nonzero;stroke:none;stroke-width:1;marker:none;visibility:visible;display:inline;overflow:visible;enable-background:accumulate"
       d="M 484.96875,176 C 483.87937,176 483,176.87937 483,177.96875 l 0,12.0625 c 0,1.08938 0.87937,1.96875 1.96875,1.96875 l 10.0625,0 c 1.08938,0 2.07681,-0.88474 1.96875,-1.96875 L 497,180 l -4,-4 z m 1.03125,2 5,0 0,4 4,0 0,7 c 0,0.554 -0.446,1 -1,1 l -8,0 c -0.554,0 -1,-0.446 -1,-1 l 0,-10 c 0,-0.554 0.446,-1 1,-1 z"
       id="path3028"
       inkscape:connector-curvature="0"
       sodipodi:nodetypes="ssssssccsscccssssss" />
    <path
       style="fill:#6e6e6e;fill-opacity:1;stroke:none;display:inline"
       d="m 489.20408,181.68706 c -0.91991,0 -1.85067,0.37151 -2.55204,1.07454 -1.40273,1.40607 -1.40273,3.67562 0,5.08169 1.1105,1.11314 2.75792,1.34331 4.0967,0.69398 0.0352,-0.0171 0.0772,-0.0489 0.11193,-0.0672 0.21732,-0.086 0.76347,-0.2446 1.05216,0.0448 0.21412,0.21463 0.14255,0.49995 0.47011,0.82829 l 2.19386,2.19386 c 0.002,-0.002 0.42249,0.4292 0.85068,0 0.42984,-0.43087 0.006,-0.86518 0,-0.87307 l -2.17147,-2.19385 c -0.32756,-0.32834 -0.59179,-0.25548 -0.80591,-0.47011 -0.35301,-0.35385 -0.0211,-1.07419 0,-1.11932 0.64779,-1.34196 0.41652,-3.00594 -0.69398,-4.11908 -0.70137,-0.70303 -1.63213,-1.07454 -2.55204,-1.07454 z m 0,0.91784 c 1.48782,0 2.68636,1.21738 2.68636,2.70874 0,1.49137 -1.19854,2.68636 -2.68636,2.68636 -1.48782,0 -2.68636,-1.19499 -2.68636,-2.68636 0,-1.49136 1.19854,-2.70874 2.68636,-2.70874 z"
       id="path3007"
       inkscape:connector-curvature="0"
       inkscape:transform-center-x="-1.4282636"
       inkscape:transform-center-y="1.4383028" />
  </g>
  <g
     transform="translate(-482,-176)"
     inkscape:groupmode="layer"
     id="layer14"
     inkscape:label="mimetypes" />
  <g
     transform="translate(-482,-176)"
     inkscape:groupmode="layer"
     id="layer15"
     inkscape:label="emblems"
     style="display:inline" />
</svg>
