/* XPM */
static char * White_Renamer_xpm[] = {
"32 32 51 1",
" 	c None",
".	c #6E6E6E",
"+	c #6E6E68",
"@	c #6E6E69",
"#	c #6F6F67",
"$	c #6D6D68",
"%	c #6D6D6D",
"&	c #6F6F68",
"*	c #6E6E67",
"=	c #8F8F8F",
"-	c #E1E1E1",
";	c #F5F5F5",
">	c #F6F6F6",
",	c #DFDFDF",
"'	c #9F9F9F",
")	c #6F6F6F",
"!	c #CECECE",
"~	c #F8F8F8",
"{	c #929292",
"]	c #949494",
"^	c #B9B9B9",
"/	c #FCFCFC",
"(	c #AAAAAA",
"_	c #9A9A9A",
":	c #B6B6B6",
"<	c #ECECEC",
"[	c #767676",
"}	c #9D9D9D",
"|	c #FFFFFF",
"1	c #707070",
"2	c #A9A9A9",
"3	c #D8D8D8",
"4	c #FAFAFA",
"5	c #D1D1D1",
"6	c #E7E7E7",
"7	c #A8A8A8",
"8	c #888888",
"9	c #7B7B7B",
"0	c #7A7A7A",
"a	c #7D7D7D",
"b	c #898989",
"c	c #EAEAEA",
"d	c #D5D5D5",
"e	c #A2A2A2",
"f	c #979797",
"g	c #818181",
"h	c #D2D2D2",
"i	c #E3E3E3",
"j	c #B4B4B4",
"k	c #D4D4D4",
"l	c #6D6D67",
"            ....++@#            ",
"         ....... $++++$         ",
"       %........      &++       ",
"      ..........       +++      ",
"     ...........         ++     ",
"    ............          *+    ",
"   .............           +*   ",
"  %.............            +@  ",
"  .............. %..        *+  ",
" ...............   .         @& ",
" ...............   .         @@ ",
" ....=-;>,')....   . )...     + ",
".....!~{]^/(....   ...   ..   *+",
"....._(...:<....   ..     .   *$",
"........)[}|....   .       .  &+",
".....1234|||....   .       .  $+",
".....567898|....   .       .  $+",
"....0|a...b|....   ..     .   &+",
"....)cde]7-|fg..   ...   ..   *+",
"%....gh;>ijk4,..   . ...)     &*",
" ...............              + ",
" ...............             *+ ",
" ...............             +* ",
"  ..............            @+  ",
"  ).............            +&  ",
"   .............           ++   ",
"    %...........          ++    ",
"     ...........         ++     ",
"      ..........       +++      ",
"       )........      &+*       ",
"         )...... $l++++         ",
"            ).).+@+@            "};
